<svg xmlns="http://www.w3.org/2000/svg" width="454" height="454" viewBox="0 0 454 454">
  <rect width="454" height="454" fill="#F8F8FC"/>
  <circle cx="227" cy="227" r="219" fill="#FFFFFF" stroke="#E5E5EA" stroke-width="2"/>
  <path d="M303 48 A196 196 0 0 1 383 248" fill="none" stroke="#0A84FF" stroke-width="13" stroke-linecap="round"/>
  <text x="227" y="35" text-anchor="middle" font-family="Arial, sans-serif" font-size="19" fill="#1C1C1E">10:08</text>
  <text x="213" y="171" text-anchor="end" font-family="Arial, sans-serif" font-size="54" font-weight="700" fill="#1C1C1E">1200</text>
  <text x="223" y="171" text-anchor="start" font-family="Arial, sans-serif" font-size="23" fill="#8E8E93">/ 2000 mL</text>
  <path d="M158 204c-3 4-5 7-5 10a5 5 0 0 0 10 0c0-3-2-6-5-10Z" fill="#0A84FF"/>
  <text x="174" y="219" font-family="Arial, sans-serif" font-size="21" fill="#8E8E93">60% · 今日进度</text>
  <rect x="93" y="252" width="268" height="60" rx="30" fill="#0A84FF"/>
  <text x="227" y="292" text-anchor="middle" font-family="Arial, sans-serif" font-size="26" fill="#FFFFFF">+200 mL</text>
  <rect x="125" y="344" width="21" height="24" rx="3" fill="none" stroke="#636366" stroke-width="3"/>
  <path d="M130 344v-5h11v5M131 353h9M131 360h7" fill="none" stroke="#636366" stroke-width="2" stroke-linecap="round"/>
  <text x="157" y="365" font-family="Arial, sans-serif" font-size="22" fill="#3A3A3C">记录</text>
  <circle cx="274" cy="356" r="11" fill="none" stroke="#636366" stroke-width="2.5"/>
  <circle cx="274" cy="356" r="4" fill="none" stroke="#636366" stroke-width="2.5"/>
  <path d="M274 337v7M274 368v7M255 356h7M286 356h7M261 343l5 5M282 364l5 5M287 343l-5 5M266 364l-5 5" fill="none" stroke="#636366" stroke-width="2.5" stroke-linecap="round"/>
  <text x="298" y="365" font-family="Arial, sans-serif" font-size="22" fill="#3A3A3C">设置</text>
</svg>
